<?xml version="1.0" standalone="no"?>
<!DOCTYPE svg PUBLIC "-//W3C//DTD SVG 20010904//EN"
 "http://www.w3.org/TR/2001/REC-SVG-20010904/DTD/svg10.dtd">
<svg version="1.0" xmlns="http://www.w3.org/2000/svg"
 width="700.000000pt" height="700.000000pt" viewBox="0 0 700.000000 700.000000"
 preserveAspectRatio="xMidYMid meet">
<metadata>
Created by potrace 1.14, written by Peter Selinger 2001-2017
</metadata>
<g transform="translate(0.000000,700.000000) scale(0.100000,-0.100000)"
fill="#000000" stroke="none">
<path d="M2240 6408 c-152 -22 -302 -120 -391 -256 -42 -64 -61 -107 -87 -193
-4 -13 -8 -850 -9 -1859 -3 -2029 -7 -1887 63 -2030 27 -53 58 -95 108 -145
80 -80 157 -124 266 -154 75 -21 79 -21 1915 -19 l1840 3 66 22 c207 71 364
255 397 466 5 29 8 870 7 1868 -1 1454 -4 1823 -14 1859 -35 120 -93 217 -180
297 -49 45 -186 120 -235 129 -16 3 -34 8 -40 12 -15 10 -3639 10 -3706 0z
m2515 -2736 c16 -13 363 -444 860 -1067 56 -70 67 -108 52 -171 -10 -38 -53
-82 -93 -93 -16 -4 -695 -7 -1509 -7 l-1480 1 -36 22 c-46 29 -64 64 -64 127
l0 52 313 418 c333 443 335 446 416 446 49 0 92 -29 142 -97 24 -32 52 -69 62
-83 11 -14 65 -86 120 -160 56 -74 137 -183 182 -243 l81 -107 81 102 c45 57
84 105 88 108 3 3 139 172 302 377 164 205 307 377 320 384 56 30 120 26 163
-9z"/>
<path d="M787 5236 c-86 -32 -147 -90 -184 -172 -16 -37 -17 -154 -18 -1995
-1 -1550 1 -1969 11 -2019 46 -224 230 -408 454 -453 49 -10 476 -13 2018 -13
l1957 1 57 28 c209 103 223 396 23 512 -24 14 -54 29 -67 32 -12 3 -831 7
-1818 8 -987 1 -1808 5 -1825 9 -76 19 -130 57 -175 121 -56 82 -53 -24 -54
1925 l-1 1805 -28 57 c-49 99 -138 158 -247 165 -40 2 -79 -2 -103 -11z"/>
</g>
</svg>
